<svg width="30" height="30" viewBox="0 0 30 30" xmlns="http://www.w3.org/2000/svg"><title>личн каб</title><path d="M21.455 26.25a2.275 2.275 0 1 1-4.55 0 2.275 2.275 0 0 1 4.55 0zM5.18 23.975a2.275 2.275 0 1 0 2.275 2.275 2.278 2.278 0 0 0-2.275-2.265v-.01zM28 .084v2.1c-1.75 0-2.306 2.072-2.45 2.709h-.049l-3.476 11.816c-.675 2.688-2.365 5.341-4.486 5.341H2.74v-2.1h14.798c1.138 0 1.845-1.4 2.227-2.45H3.315a1.05 1.05 0 0 1-.98-.672L.206 7.406c0-.028-.018-.052-.028-.08a2.604 2.604 0 0 1 .217-2.191C1.054 4.085 2.39 3.87 2.846 3.8l20.884-.17C24.5 1.425 26.25.084 28 .084z" fill="#FFF" fill-rule="evenodd"/></svg>