<svg width="30" height="30" viewBox="0 0 30 30" xmlns="http://www.w3.org/2000/svg"><title>noun_145258_cc</title><g fill="#FFF" fill-rule="evenodd"><path d="M6 7H1.25a.961.961 0 0 1-.938-.938c0-.5.438-.937.938-.937H6c.5 0 .938.438.938.938A.92.92 0 0 1 6 7zm0 17.875H1.25a.961.961 0 0 1-.938-.938c0-.5.438-.937.938-.937H6c.5 0 .938.438.938.938a.92.92 0 0 1-.938.937zM11.438.813v28.375c0 .25.25.5.5.5h17.25c.25 0 .5-.25.5-.5V.813c0-.25-.25-.5-.5-.5h-17.25c-.313 0-.5.25-.5.5z"/><path d="M4.438.813v2c0 .25.25.5.5.5h.937c1.5 0 2.813 1.062 2.938 2.562C9 7.563 7.625 8.938 6 8.938H4.937c-.25 0-.5.25-.5.5v11.25c0 .25.25.5.5.5h.938c1.5 0 2.813 1.062 2.938 2.562C9 25.438 7.625 26.813 6 26.813H4.937c-.25 0-.5.25-.5.5v2c0 .25.25.5.5.5h4.125c.25 0 .5-.25.5-.5V.813c0-.25-.25-.5-.5-.5H4.939c-.313 0-.5.25-.5.5z"/></g></svg>