<svg width="30" height="30" viewBox="0 0 30 30" xmlns="http://www.w3.org/2000/svg"><title>настройки</title><path d="M25.739 16.47c.06-.48.105-.96.105-1.47s-.045-.99-.105-1.47l3.165-2.475a.757.757 0 0 0 .18-.96l-3-5.19c-.18-.33-.585-.45-.915-.33l-3.735 1.5a10.96 10.96 0 0 0-2.535-1.47L18.329.63a.731.731 0 0 0-.735-.63h-6c-.375 0-.69.27-.735.63l-.57 3.975c-.915.375-1.755.885-2.535 1.47l-3.735-1.5a.732.732 0 0 0-.915.33l-3 5.19a.74.74 0 0 0 .18.96l3.165 2.475c-.06.48-.105.975-.105 1.47s.045.99.105 1.47L.284 18.945a.757.757 0 0 0-.18.96l3 5.19c.18.33.585.45.915.33l3.735-1.5c.78.6 1.62 1.095 2.535 1.47l.57 3.975c.045.36.36.63.735.63h6c.375 0 .69-.27.735-.63l.57-3.975c.915-.375 1.755-.885 2.535-1.47l3.735 1.5c.345.135.735 0 .915-.33l3-5.19a.757.757 0 0 0-.18-.96l-3.165-2.475zm-11.145 3.78A5.256 5.256 0 0 1 9.344 15a5.256 5.256 0 0 1 5.25-5.25 5.256 5.256 0 0 1 5.25 5.25 5.256 5.256 0 0 1-5.25 5.25z" fill="#FFF" fill-rule="evenodd"/></svg>