<svg width="29" height="30" viewBox="0 0 29 30" xmlns="http://www.w3.org/2000/svg"><title>Group</title><g fill="#FFF" fill-rule="evenodd"><path d="M22.879.399v6.077h6.078z"/><path d="M22.167.399H.043v29.29h28.914V7.168h-6.79V.399zm-3.463 19.83c-.457.414-1.014.756-1.673 1.027-.659.272-1.4.43-2.226.473v3.932h-1.782v-3.878a14.275 14.275 0 0 1-2.607-.294c-.956-.188-1.713-.423-2.27-.705v-3.151h.347c.348.224.974.483 1.879.776a10.05 10.05 0 0 0 2.705.495v-3.01l-.967-.238a13.226 13.226 0 0 1-1.597-.5 4.805 4.805 0 0 1-1.369-.803 3.585 3.585 0 0 1-.94-1.212c-.227-.474-.341-1.084-.341-1.83 0-1.086.454-2.011 1.363-2.775.909-.765 2.174-1.226 3.797-1.386V4.62h1.782v2.509c.651.021 1.399.118 2.242.288.844.17 1.49.353 1.94.548v3.129h-.348a7.304 7.304 0 0 0-1.727-.771c-.623-.189-1.344-.305-2.162-.348v2.759l.956.206c1.506.326 2.622.803 3.346 1.43.724.626 1.086 1.53 1.086 2.71 0 .608-.127 1.184-.38 1.727a4.404 4.404 0 0 1-1.054 1.423z"/><path d="M11.654 11.224c0 .312.086.569.261.771.173.204.586.381 1.238.533V9.986a2.18 2.18 0 0 0-1.054.359c-.297.202-.445.495-.445.88zm3.02 4.878v2.78c.456-.043.84-.171 1.151-.385.312-.214.467-.545.467-.994 0-.363-.129-.659-.385-.891-.258-.231-.669-.402-1.233-.51z"/></g></svg>