<svg width="25" height="25" viewBox="0 0 25 25" xmlns="http://www.w3.org/2000/svg"><title>exit</title><g fill="#3AB3DF" fill-rule="evenodd"><path d="M24.328 11.563l-4.695-4.486a.797.797 0 0 0-.84-.158.736.736 0 0 0-.474.679v2.45h-7.79c-.567 0-1.027.44-1.027.981v2.941c0 .542.46.98 1.026.98h7.791v2.452c0 .296.188.565.475.679a.795.795 0 0 0 .84-.16l4.696-4.487a1.288 1.288 0 0 0-.002-1.871z"/><path d="M13.093 18.117v3.795a.15.15 0 0 1-.153.147H3.5a.15.15 0 0 1-.154-.147V3.088a.15.15 0 0 1 .154-.147h9.44a.15.15 0 0 1 .153.147v3.794h3.078v-4.94C16.171.318 15.791 0 14.093 0H2.346C.65 0 .268.32.268 1.941V23.06C.268 24.68.65 25 2.346 25h11.747c1.697 0 2.078-.32 2.078-1.941v-4.942h-3.078z"/></g></svg>