<svg xmlns="http://www.w3.org/2000/svg" width="1963" height="1024" viewBox="0 0 1963 1024"><path fill="#fff" d="M293.015 222.635H22.134c-12.258 0-22.149 10.682-22.149 23.83s9.909 23.83 22.149 23.83h270.881c12.239 0 22.149-10.682 22.149-23.83s-9.929-23.83-22.149-23.83zm-.059 191.596c0-13.169-9.929-23.83-22.149-23.83H52.032c-12.258 0-22.149 10.682-22.149 23.83s9.909 23.83 22.149 23.83h218.775c12.22 0 22.149-10.682 22.149-23.83zm.059 159.727H22.134c-12.258 0-22.149 10.682-22.149 23.83s9.909 23.83 22.149 23.83h270.881c12.239 0 22.149-10.682 22.149-23.83s-9.929-23.83-22.149-23.83zm1665.666-57.549l-195.006-255.38a20.995 20.995 0 0 0-17.349-8.501h-204.895a4.337 4.337 0 0 1-4.337-4.164V25.426a21.341 21.341 0 0 0-21.166-21.513H422.926a21.342 21.342 0 0 0-21.34 21.512v837.448c0 11.785 9.554 21.34 21.34 21.34h87.96c10.767.062 19.836-8.032 20.992-18.737 9.646-103.654 96.629-182.917 200.73-182.917s191.084 79.263 200.73 182.917c1.156 10.706 10.225 18.799 20.992 18.737h372.835c10.803.072 19.927-8.004 21.166-18.737 9.181-103.973 96.266-183.707 200.644-183.707s191.463 79.735 200.644 183.707c1.239 10.732 10.363 18.808 21.166 18.737h170.89a21.342 21.342 0 0 0 21.34-21.34V529.42a22.036 22.036 0 0 0-4.337-13.012zm-71.826 9.715h-341.953a5.205 5.205 0 0 1-5.205-5.205V323.311a5.379 5.379 0 0 1 5.205-5.205h187.371a8.67 8.67 0 0 1 6.766 3.47l151.98 196.219a5.205 5.205 0 0 1-4.163 8.327zm-211.487 357.915c.071 50.975-30.593 96.968-77.674 116.508s-101.3 8.774-137.345-27.271-46.81-90.263-27.271-137.345 65.533-77.744 116.508-77.674c69.332.287 125.358 56.623 125.262 125.955l.52-.174zm-816.456 0c.071 50.975-30.593 96.968-77.674 116.508s-101.3 8.774-137.345-27.271-46.81-90.263-27.271-137.345 65.533-77.744 116.508-77.674c69.399.191 125.531 56.556 125.435 125.955l.347-.174z"/></svg>