<svg width="17" height="26" viewBox="0 0 17 26" xmlns="http://www.w3.org/2000/svg"><title>Group 6</title><g fill="#3AB3DF" fill-rule="evenodd"><path d="M8.928.14a7.403 7.403 0 0 0-7.41 7.41c0 .478.056.955.14 1.432.056.281.112.534.197.786 1.319 4.463 6.652 10.021 6.877 10.274a.255.255 0 0 0 .196.084c.084 0 .14-.028.197-.084.224-.225 5.557-5.81 6.877-10.274.084-.252.14-.533.196-.786.084-.477.14-.954.14-1.431A7.403 7.403 0 0 0 8.929.14zm0 11.06A3.642 3.642 0 0 1 5.28 7.55a3.642 3.642 0 0 1 3.65-3.648 3.642 3.642 0 0 1 3.648 3.649 3.642 3.642 0 0 1-3.65 3.649z"/><path d="M15.637 20.295c-.028-.057-.028-.085-.084-.113l-1.937-1.824a.271.271 0 0 0-.393 0 .271.271 0 0 0 0 .393l1.88 1.768 1.18 3.733-3.2-1.684c-.085-.028-.169-.056-.253 0l-3.902 1.965-3.902-1.937a.39.39 0 0 0-.252 0l-3.2 1.684 1.179-3.733 1.88-1.768a.271.271 0 0 0 0-.393.271.271 0 0 0-.393 0L2.304 20.21c-.028.028-.056.085-.085.113L.816 24.786a.317.317 0 0 0 .084.309c.056.056.112.056.169.056.056 0 .084 0 .14-.028l3.677-1.937 3.902 1.937a.39.39 0 0 0 .252 0l3.902-1.937 3.677 1.937a.301.301 0 0 0 .31-.028c.083-.085.111-.197.083-.31l-1.375-4.49z"/></g></svg>