<svg width="30" height="30" viewBox="0 0 30 30" xmlns="http://www.w3.org/2000/svg"><title>noun_605471_cc</title><g fill="#FFF" fill-rule="evenodd"><path d="M7.969 30c.192-3.084 1.418-5.212 2.792-7.046-.803-1.268-1.721-2.414-2.631-3.54C5.976 16.75 3.75 13.997 3.75 10c0-.527.049-1.046.12-1.56A7.477 7.477 0 0 0 0 15c0 5.625 6.563 7.5 7.031 15h.938zM26.13 8.44c.071.514.12 1.033.12 1.56 0 3.998-2.226 6.751-4.38 9.414-.911 1.126-1.829 2.272-2.631 3.54 1.375 1.834 2.6 3.961 2.792 7.046h.938C23.437 22.5 30 20.625 30 15a7.477 7.477 0 0 0-3.87-6.56z"/><path d="M15.625 30C16.25 20 25 17.5 25 10a9.97 9.97 0 0 0-2.93-7.071A9.968 9.968 0 0 0 15 0a9.968 9.968 0 0 0-7.07 2.929A9.964 9.964 0 0 0 5 10c0 7.5 8.75 10 9.375 20h1.25zM11.25 10a3.75 3.75 0 1 1 7.501.001A3.75 3.75 0 0 1 11.25 10z"/></g></svg>