<svg xmlns="http://www.w3.org/2000/svg" width="30" height="30" viewBox="0 0 30 30"><g fill="none" fill-rule="evenodd"><path d="M0 0h30v30H0z"/><g fill="#9F9F9F" transform="translate(0 1)"><ellipse cx="15" cy="15" rx="4.706" ry="4.706"/><path d="M10.588.294l-2.69 2.941H3.234a2.95 2.95 0 0 0-2.94 2.941v17.648a2.95 2.95 0 0 0 2.94 2.94h23.53a2.95 2.95 0 0 0 2.94-2.94V6.176a2.95 2.95 0 0 0-2.94-2.94h-4.662L19.412.293h-8.824zM15 22.353A7.356 7.356 0 0 1 7.647 15 7.356 7.356 0 0 1 15 7.647 7.356 7.356 0 0 1 22.353 15 7.356 7.356 0 0 1 15 22.353z"/></g></g></svg>