<svg width="27" height="25" viewBox="0 0 27 25" xmlns="http://www.w3.org/2000/svg"><title>print</title><g fill="#3AB3DF" fill-rule="evenodd"><path d="M19.31 6.736V3.088a3.875 3.875 0 0 1-.028-.499c0-2.021-1.336-2.385-2.03-2.438H8.897C7.067.15 7.04 1.797 7.04 1.797v4.94h12.269zm-1.316 12.291H8.492c-1.243 0-1.311 1.202-1.311 1.202v3.429c.006.253.11 1.215 1.279 1.215h9.57c.285-.008 1.383-.118 1.383-1.385v-3.095c0-1.132-.933-1.336-1.42-1.366z"/><path d="M21.603 5.262h-.102c-.256.024-.906.246-.906 1.915v2.247H6V6.737c0-1.16-.46-1.425-.758-1.475h-.25c-2.74 0-4.97 2.23-4.97 4.971v7.62a4.976 4.976 0 0 0 4.97 4.97c.785 0 .96-.529.992-.86v-3.41c.04-.335.254-.854 1.197-.854h12.316c.269.012 1.113.162 1.113 1.602V21.8c.015.317.145 1.023.993 1.023 2.741 0 4.97-2.23 4.97-4.97v-7.62a4.975 4.975 0 0 0-4.97-4.97zm-.582 7.923H20.2a.656.656 0 0 1 0-1.311h.821a.656.656 0 0 1 0 1.31z"/></g></svg>