<svg width="30" height="25" viewBox="0 0 30 25" xmlns="http://www.w3.org/2000/svg"><title>личн каб copy</title><g fill="#FFF" fill-rule="evenodd"><path d="M21.16 16.06h8.582v-6.9H21.16v6.9zm3.893-4.774c.625 0 1.132.594 1.132 1.323 0 .732-.506 1.324-1.132 1.324-.626 0-1.133-.592-1.133-1.324.001-.73.507-1.323 1.133-1.323z"/><path d="M29.742 7.887V2.775c0-1.24-.875-2.251-1.95-2.251h-1.913L2.192.418C1.644.587.502 2.522.172 3.086c-.178.36 0 10.285 0 10.285V21.6c0 1.029 0 2.057 2.057 3.086 2.057 0 25.562-.142 25.562-.142 1.076 0 1.95-1.01 1.95-2.251v-4.96h-9.218a.637.637 0 0 1-.637-.636V8.524a.638.638 0 0 1 .637-.637h9.219z"/></g></svg>