<svg width="30" height="25" viewBox="0 0 30 25" xmlns="http://www.w3.org/2000/svg"><title>transf_pers</title><g fill="#3AB3DF" fill-rule="evenodd"><path d="M20.644 23.788V22.12h-7.538v-6.552a11.215 11.215 0 0 0-1.97-.151C4.962 15.417 0 19.545 0 24.62h20.758a2.771 2.771 0 0 1-.114-.833z"/><ellipse cx="11.439" cy="7.045" rx="6.705" ry="6.705"/><path d="M22.84 24.66c.19 0 .418-.115.683-.342l5.113-4.81a1.56 1.56 0 0 0 0-2.311l-5.075-4.849c-.266-.227-.493-.378-.682-.378-.303 0-.53.303-.53.87v3.372h-7.576v4.243h7.538v3.37c0 .531.227.834.53.834z"/></g></svg>