<?xml version="1.0" encoding="UTF-8" standalone="no"?>
<svg width="30px" height="30px" viewBox="0 0 30 30" version="1.1" xmlns="http://www.w3.org/2000/svg" xmlns:xlink="http://www.w3.org/1999/xlink">
    <!-- Generator: Sketch 41.1 (35376) - http://www.bohemiancoding.com/sketch -->
    <title>личн каб</title>
    <desc>Created with Sketch.</desc>
    <defs></defs>
    <g id="Symbols" stroke="none" stroke-width="1" fill="none" fill-rule="evenodd">
        <g id="icons" transform="translate(0.000000, -172.000000)" fill="#FFFFFF">
            <g transform="translate(0.000000, 11.000000)" id="shopping-cart">
                <g transform="translate(0.000000, 161.000000)">
                    <g id="noun_473318_cc-copy">
                        <g id="MaiTa_Icon_Grid_export_copy">
                            <path d="M21.455,26.25 C21.455,27.5064478 20.4364478,28.525 19.18,28.525 C17.9235522,28.525 16.905,27.5064478 16.905,26.25 C16.905,24.9935522 17.9235522,23.975 19.18,23.975 C20.4356486,23.9769273 21.4530727,24.9943514 21.455,26.25 L21.455,26.25 Z M5.18,23.975 C3.92355219,23.975 2.905,24.9935522 2.905,26.25 C2.905,27.5064478 3.92355219,28.525 5.18,28.525 C6.43644781,28.525 7.455,27.5064478 7.455,26.25 C7.4473113,24.9984538 6.43156836,23.9873989 5.18,23.9855 L5.18,23.975 Z M28,0.084 L28,2.184 C26.25,2.184 25.6935,4.256 25.55,4.893 L25.501,4.893 L22.0255,16.709 C21.35,19.397 19.6595,22.05 17.5385,22.05 L2.7405,22.05 L2.7405,19.95 L17.5385,19.95 C18.676,19.95 19.383,18.55 19.7645,17.5 L3.3145,17.5 C2.88031326,17.5001654 2.49080721,17.2330756 2.3345,16.828 L0.2065,7.406 C0.2065,7.378 0.189,7.3535 0.1785,7.3255 C-0.0766638441,6.59900406 0.00278480379,5.796829 0.3955,5.1345 C1.0535,4.0845 2.3905,3.871 2.8455,3.801 L2.8455,3.801 L23.73,3.6295 C24.5,1.4245 26.25,0.084 28,0.084 L28,0.084 Z" id="Shape"></path>
                        </g>
                    </g>
                </g>
            </g>
        </g>
    </g>
</svg>