<?xml version="1.0" encoding="UTF-8" standalone="no"?>
<svg width="30px" height="30px" viewBox="0 0 30 30" version="1.1" xmlns="http://www.w3.org/2000/svg" xmlns:xlink="http://www.w3.org/1999/xlink">
    <!-- Generator: Sketch 41.1 (35376) - http://www.bohemiancoding.com/sketch -->
    <title>noun_145258_cc</title>
    <desc>Created with Sketch.</desc>
    <defs></defs>
    <g id="Symbols" stroke="none" stroke-width="1" fill="none" fill-rule="evenodd">
        <g id="icons" transform="translate(0.000000, -492.000000)" fill="#FFFFFF">
            <g transform="translate(0.000000, 11.000000)" id="noun_145258_cc">
                <g transform="translate(0.000000, 481.000000)">
                    <g id="Group">
                        <g id="Shape">
                            <path d="M6,7 L1.25,7 C0.75,7 0.3125,6.5625 0.3125,6.0625 C0.3125,5.5625 0.75,5.125 1.25,5.125 L6,5.125 C6.5,5.125 6.9375,5.5625 6.9375,6.0625 C6.9375,6.5625 6.5625,7 6,7 L6,7 Z"></path>
                            <path d="M6,24.875 L1.25,24.875 C0.75,24.875 0.3125,24.4375 0.3125,23.9375 C0.3125,23.4375 0.75,23 1.25,23 L6,23 C6.5,23 6.9375,23.4375 6.9375,23.9375 C6.9375,24.4375 6.5625,24.875 6,24.875 L6,24.875 Z"></path>
                            <path d="M11.4375,0.8125 L11.4375,29.1875 C11.4375,29.4375 11.6875,29.6875 11.9375,29.6875 L29.1875,29.6875 C29.4375,29.6875 29.6875,29.4375 29.6875,29.1875 L29.6875,0.8125 C29.6875,0.5625 29.4375,0.3125 29.1875,0.3125 L11.9375,0.3125 C11.625,0.3125 11.4375,0.5625 11.4375,0.8125 L11.4375,0.8125 Z"></path>
                            <path d="M4.4375,0.8125 L4.4375,2.8125 C4.4375,3.0625 4.6875,3.3125 4.9375,3.3125 L5.875,3.3125 C7.375,3.3125 8.6875,4.375 8.8125,5.875 C9,7.5625 7.625,8.9375 6,8.9375 L4.9375,8.9375 C4.6875,8.9375 4.4375,9.1875 4.4375,9.4375 L4.4375,20.6875 C4.4375,20.9375 4.6875,21.1875 4.9375,21.1875 L5.875,21.1875 C7.375,21.1875 8.6875,22.25 8.8125,23.75 C9,25.4375 7.625,26.8125 6,26.8125 L4.9375,26.8125 C4.6875,26.8125 4.4375,27.0625 4.4375,27.3125 L4.4375,29.3125 C4.4375,29.5625 4.6875,29.8125 4.9375,29.8125 L9.0625,29.8125 C9.3125,29.8125 9.5625,29.5625 9.5625,29.3125 L9.5625,0.8125 C9.5625,0.5625 9.3125,0.3125 9.0625,0.3125 L4.9375,0.3125 C4.625,0.3125 4.4375,0.5625 4.4375,0.8125 L4.4375,0.8125 Z"></path>
                        </g>
                    </g>
                </g>
            </g>
        </g>
    </g>
</svg>