<?xml version="1.0" encoding="UTF-8" standalone="no"?>
<svg width="23px" height="20px" viewBox="0 0 23 20" version="1.1" xmlns="http://www.w3.org/2000/svg" xmlns:xlink="http://www.w3.org/1999/xlink">
    <!-- Generator: Sketch 41.1 (35376) - http://www.bohemiancoding.com/sketch -->
    <title>calendar</title>
    <desc>Created with Sketch.</desc>
    <defs></defs>
    <g id="Page-1" stroke="none" stroke-width="1" fill="none" fill-rule="evenodd">
        <g id="TT-Copy-3" transform="translate(-468.000000, -226.000000)">
            <g id="Group-8" transform="translate(93.000000, 224.000000)">
                <g id="Group-7" transform="translate(343.000000, 0.000000)">
                    <g id="data" transform="translate(30.924574, 2.000000)">
                        <g id="calendar">
                            <path d="M9.23230555,9 L6.82387802,9 L6.82387802,11 L9.23230555,11 L9.23230555,9 L9.23230555,9 Z M14.0491606,9 L11.6407331,9 L11.6407331,11 L14.0491606,11 L14.0491606,9 L14.0491606,9 Z M18.8660157,9 L16.4575882,9 L16.4575882,11 L18.8660157,11 L18.8660157,9 L18.8660157,9 Z M21.2744432,2 L20.0702295,2 L20.0702295,0 L17.6618019,0 L17.6618019,2 L8.02809178,2 L8.02809178,0 L5.61966425,0 L5.61966425,2 L4.41545048,2 C3.0787732,2 2.01906508,2.9 2.01906508,4 L2.00702295,18 C2.00702295,19.1 3.0787732,20 4.41545048,20 L21.2744432,20 C22.5990784,20 23.6828708,19.1 23.6828708,18 L23.6828708,4 C23.6828708,2.9 22.5990784,2 21.2744432,2 L21.2744432,2 Z M21.2744432,18 L4.41545048,18 L4.41545048,7 L21.2744432,7 L21.2744432,18 L21.2744432,18 Z" id="Shape" fill="#3AB3DF"></path>
                            <polygon id="Shape" points="0 3 24.0842754 3 24.0842754 23 0 23"></polygon>
                        </g>
                    </g>
                </g>
            </g>
        </g>
    </g>
</svg>