<?xml version="1.0" encoding="UTF-8" standalone="no"?>
<svg width="26px" height="25px" viewBox="0 0 26 25" version="1.1" xmlns="http://www.w3.org/2000/svg" xmlns:xlink="http://www.w3.org/1999/xlink">
    <!-- Generator: Sketch 41.1 (35376) - http://www.bohemiancoding.com/sketch -->
    <title>ok</title>
    <desc>Created with Sketch.</desc>
    <defs></defs>
    <g id="Page-1" stroke="none" stroke-width="1" fill="none" fill-rule="evenodd">
        <g id="order-info" transform="translate(-145.000000, -789.000000)" fill="#3AB3DF">
            <g id="2-copy" transform="translate(44.000000, 697.000000)">
                <g id="Group-10" transform="translate(68.000000, 76.000000)">
                    <g id="ok" transform="translate(33.470705, 16.000000)">
                        <path d="M22.2222222,0 L2.77777778,0 C1.23611111,0 0,1.25 0,2.77777778 L0,22.2222222 C0,23.75 1.23611111,25 2.77777778,25 L22.2222222,25 C23.7638889,25 25,23.75 25,22.2222222 L25,2.77777778 C25,1.25 23.7638889,0 22.2222222,0 L22.2222222,0 Z M9.72222222,19.4444444 L2.77777778,12.5 L4.73611111,10.5416667 L9.72222222,15.5138889 L20.2638889,4.97222222 L22.2222222,6.94444444 L9.72222222,19.4444444 L9.72222222,19.4444444 Z" id="Shape"></path>
                    </g>
                </g>
            </g>
        </g>
    </g>
</svg>