<?xml version="1.0" encoding="UTF-8" standalone="no"?>
<svg width="30px" height="30px" viewBox="0 0 30 30" version="1.1" xmlns="http://www.w3.org/2000/svg" xmlns:xlink="http://www.w3.org/1999/xlink">
    <!-- Generator: Sketch 41.1 (35376) - http://www.bohemiancoding.com/sketch -->
    <title>настройки</title>
    <desc>Created with Sketch.</desc>
    <defs></defs>
    <g id="Symbols" stroke="none" stroke-width="1" fill="none" fill-rule="evenodd">
        <g id="icons" transform="translate(0.000000, -572.000000)" fill="#FFFFFF">
            <g transform="translate(0.000000, 11.000000)" id="настройки">
                <g transform="translate(0.000000, 561.000000)">
                    <path d="M25.7389974,16.47 C25.7989974,15.99 25.8439974,15.51 25.8439974,15 C25.8439974,14.49 25.7989974,14.01 25.7389974,13.53 L28.9039974,11.055 C29.1889974,10.83 29.2639974,10.425 29.0839974,10.095 L26.0839974,4.905 C25.9039974,4.575 25.4989974,4.455 25.1689974,4.575 L21.4339974,6.075 C20.6539974,5.475 19.8139974,4.98 18.8989974,4.605 L18.3289974,0.63 C18.2839974,0.27 17.9689974,0 17.5939974,0 L11.5939974,0 C11.2189974,0 10.9039974,0.27 10.8589974,0.63 L10.2889974,4.605 C9.37399741,4.98 8.53399741,5.49 7.75399741,6.075 L4.01899741,4.575 C3.67399741,4.44 3.28399741,4.575 3.10399741,4.905 L0.103997406,10.095 C-0.0910025941,10.425 -0.0010025941,10.83 0.283997406,11.055 L3.44899741,13.53 C3.38899741,14.01 3.34399741,14.505 3.34399741,15 C3.34399741,15.495 3.38899741,15.99 3.44899741,16.47 L0.283997406,18.945 C-0.0010025941,19.17 -0.0760025941,19.575 0.103997406,19.905 L3.10399741,25.095 C3.28399741,25.425 3.68899741,25.545 4.01899741,25.425 L7.75399741,23.925 C8.53399741,24.525 9.37399741,25.02 10.2889974,25.395 L10.8589974,29.37 C10.9039974,29.73 11.2189974,30 11.5939974,30 L17.5939974,30 C17.9689974,30 18.2839974,29.73 18.3289974,29.37 L18.8989974,25.395 C19.8139974,25.02 20.6539974,24.51 21.4339974,23.925 L25.1689974,25.425 C25.5139974,25.56 25.9039974,25.425 26.0839974,25.095 L29.0839974,19.905 C29.2639974,19.575 29.1889974,19.17 28.9039974,18.945 L25.7389974,16.47 L25.7389974,16.47 Z M14.5939974,20.25 C11.6989974,20.25 9.34399741,17.895 9.34399741,15 C9.34399741,12.105 11.6989974,9.75 14.5939974,9.75 C17.4889974,9.75 19.8439974,12.105 19.8439974,15 C19.8439974,17.895 17.4889974,20.25 14.5939974,20.25 L14.5939974,20.25 Z" id="Shape"></path>
                </g>
            </g>
        </g>
    </g>
</svg>