<?xml version="1.0" encoding="UTF-8" standalone="no"?>
<svg width="29px" height="30px" viewBox="0 0 29 30" version="1.1" xmlns="http://www.w3.org/2000/svg" xmlns:xlink="http://www.w3.org/1999/xlink">
    <!-- Generator: Sketch 41.1 (35376) - http://www.bohemiancoding.com/sketch -->
    <title>Group</title>
    <desc>Created with Sketch.</desc>
    <defs></defs>
    <g id="Symbols" stroke="none" stroke-width="1" fill="none" fill-rule="evenodd">
        <g id="icons" transform="translate(-1.000000, -252.000000)" fill="#FFFFFF">
            <g transform="translate(0.000000, 11.000000)" id="Group">
                <g transform="translate(0.000000, 241.000000)">
                    <g id="price" transform="translate(1.000000, 0.000000)">
                        <polygon id="Shape" points="22.8788 0.399 22.8788 6.4758 28.9574 6.4758"></polygon>
                        <path d="M22.1672,0.399 L0.0426,0.399 L0.0426,29.689 L28.9568,29.689 L28.9568,7.1676 L22.1672,7.1676 L22.1672,0.399 Z M18.704,20.2298 C18.2474,20.6426 17.69,20.9846 17.0312,21.2564 C16.3724,21.5276 15.6302,21.6854 14.8046,21.7286 L14.8046,25.661 L13.0226,25.661 L13.0226,21.7826 C12.2402,21.7754 11.3714,21.6776 10.4156,21.4892 C9.4598,21.3008 8.7032,21.0656 8.1452,20.7836 L8.1452,17.633 L8.4926,17.633 C8.8406,17.8568 9.467,18.116 10.3718,18.4094 C11.2772,18.7028 12.1784,18.8678 13.0772,18.9038 L13.0772,15.8948 L12.11,15.656 C11.5526,15.5186 11.0204,15.3518 10.5134,15.1562 C10.0064,14.9606 9.5498,14.693 9.1442,14.3528 C8.7458,14.0198 8.4326,13.6154 8.2046,13.1414 C7.9766,12.6674 7.8626,12.0572 7.8626,11.3114 C7.8626,10.2254 8.3168,9.2996 9.2258,8.5358 C10.1348,7.7714 11.4002,7.31 13.0226,7.1504 L13.0226,4.6196 L14.8046,4.6196 L14.8046,7.1288 C15.4562,7.1504 16.2038,7.247 17.0474,7.4168 C17.891,7.5872 18.5378,7.7696 18.9866,7.9652 L18.9866,11.0936 L18.6386,11.0936 C18.11,10.7678 17.5346,10.511 16.9118,10.3226 C16.289,10.1342 15.5684,10.0178 14.75,9.9746 L14.75,12.734 L15.7058,12.9404 C17.2124,13.2662 18.3278,13.7432 19.052,14.3696 C19.7762,14.996 20.138,15.8996 20.138,17.0798 C20.138,17.6882 20.0108,18.2636 19.7576,18.8066 C19.5044,19.3502 19.1534,19.8242 18.704,20.2298 Z" id="Shape"></path>
                        <path d="M11.654,11.2244 C11.654,11.5358 11.7404,11.7926 11.915,11.9954 C12.0884,12.1988 12.5012,12.3764 13.1528,12.5282 L13.1528,9.986 C12.7472,10.0226 12.3962,10.142 12.0992,10.3448 C11.8022,10.547 11.654,10.8404 11.654,11.2244 L11.654,11.2244 Z" id="Shape"></path>
                        <path d="M14.6738,16.1018 L14.6738,18.8822 C15.1298,18.839 15.5138,18.7106 15.8252,18.497 C16.1366,18.2834 16.292,17.9516 16.292,17.5028 C16.292,17.1404 16.163,16.844 15.9068,16.6118 C15.6494,16.3808 15.2384,16.2104 14.6738,16.1018 L14.6738,16.1018 Z" id="Shape"></path>
                    </g>
                </g>
            </g>
        </g>
    </g>
</svg>