<?xml version="1.0" encoding="UTF-8" standalone="no"?>
<svg width="25px" height="25px" viewBox="0 0 25 25" version="1.1" xmlns="http://www.w3.org/2000/svg" xmlns:xlink="http://www.w3.org/1999/xlink">
    <!-- Generator: Sketch 41.1 (35376) - http://www.bohemiancoding.com/sketch -->
    <title>exit</title>
    <desc>Created with Sketch.</desc>
    <defs></defs>
    <g id="Page-1" stroke="none" stroke-width="1" fill="none" fill-rule="evenodd">
        <g id="user-profile" transform="translate(-1231.000000, -109.000000)" fill="#3AB3DF">
            <g id="exit" transform="translate(1231.000000, 109.000000)">
                <path d="M24.3281977,11.5627778 L19.6325581,7.0775 C19.4119186,6.86777778 19.0813953,6.80444444 18.7936047,6.91861111 C18.5063953,7.03222222 18.3188953,7.30083333 18.3188953,7.59777778 L18.3188953,10.0488889 L10.5281977,10.0488889 C9.96162791,10.0488889 9.50232558,10.4877778 9.50232558,11.0291667 L9.50232558,13.9702778 C9.50232558,14.5116667 9.9619186,14.9505556 10.5281977,14.9505556 L18.319186,14.9505556 L18.319186,17.4016667 C18.319186,17.6983333 18.5069767,17.9669444 18.7944767,18.0805556 C18.8892442,18.1183333 18.9895349,18.1363889 19.0889535,18.1363889 C19.2889535,18.1363889 19.4854651,18.0616667 19.6331395,17.9213889 L24.3302326,13.4344444 C24.8662791,12.9191667 24.8665698,12.0802778 24.3281977,11.5627778 L24.3281977,11.5627778 Z" id="Shape"></path>
                <path d="M13.0930233,18.1175 L13.0930233,21.9119444 C13.0930233,21.9927778 13.0247093,22.0588889 12.9395349,22.0588889 L3.5,22.0588889 C3.41511628,22.0588889 3.34622093,21.9927778 3.34622093,21.9119444 L3.34622093,3.08805556 C3.34622093,3.00666667 3.41511628,2.94111111 3.5,2.94111111 L12.9395349,2.94111111 C13.0247093,2.94111111 13.0930233,3.00666667 13.0930233,3.08805556 L13.0930233,6.88194444 L16.1712209,6.88194444 L16.1712209,1.94111111 C16.1712209,0.319444444 15.790407,0 14.0930233,0 L2.34622093,0 C0.649127907,0 0.268313953,0.319444444 0.268313953,1.94111111 L0.268313953,23.0588889 C0.268313953,24.6805556 0.649127907,25 2.34622093,25 L14.0930233,25 C15.790407,25 16.1712209,24.6805556 16.1712209,23.0588889 L16.1712209,18.1175 L13.0930233,18.1175 Z" id="Shape"></path>
            </g>
        </g>
    </g>
</svg>