<?xml version="1.0" encoding="UTF-8" standalone="no"?>
<svg width="20px" height="20px" viewBox="0 0 20 20" version="1.1" xmlns="http://www.w3.org/2000/svg" xmlns:xlink="http://www.w3.org/1999/xlink">
    <!-- Generator: Sketch 41.1 (35376) - http://www.bohemiancoding.com/sketch -->
    <title>Shape</title>
    <desc>Created with Sketch.</desc>
    <defs></defs>
    <g id="Page-1" stroke="none" stroke-width="1" fill="none" fill-rule="evenodd">
        <g id="tarde-outlets-list" transform="translate(-118.000000, -234.000000)" fill="#9F9F9F">
            <g id="Group-2" transform="translate(92.000000, 226.000000)">
                <path d="M26,20.6760563 L31.6338028,20.6760563 L31.6338028,15.0422535 L26,15.0422535 L26,20.6760563 L26,20.6760563 Z M26,27.7183099 L31.6338028,27.7183099 L31.6338028,22.084507 L26,22.084507 L26,27.7183099 L26,27.7183099 Z M26,13.6338028 L31.6338028,13.6338028 L31.6338028,8 L26,8 L26,13.6338028 L26,13.6338028 Z M33.1830986,20.6760563 L38.8169014,20.6760563 L38.8169014,15.0422535 L33.1830986,15.0422535 L33.1830986,20.6760563 L33.1830986,20.6760563 Z M33.1830986,27.7183099 L38.8169014,27.7183099 L38.8169014,22.084507 L33.1830986,22.084507 L33.1830986,27.7183099 L33.1830986,27.7183099 Z M33.1830986,13.6338028 L38.8169014,13.6338028 L38.8169014,8 L33.1830986,8 L33.1830986,13.6338028 L33.1830986,13.6338028 Z M40.3661972,20.6760563 L46,20.6760563 L46,15.0422535 L40.3661972,15.0422535 L40.3661972,20.6760563 L40.3661972,20.6760563 Z M40.3661972,27.7183099 L46,27.7183099 L46,22.084507 L40.3661972,22.084507 L40.3661972,27.7183099 L40.3661972,27.7183099 Z M40.3661972,13.6338028 L46,13.6338028 L46,8 L40.3661972,8 L40.3661972,13.6338028 L40.3661972,13.6338028 Z" id="Shape"></path>
            </g>
        </g>
    </g>
</svg>