<?xml version="1.0" encoding="UTF-8" standalone="no"?>
<svg width="30px" height="23px" viewBox="0 0 30 23" version="1.1" xmlns="http://www.w3.org/2000/svg" xmlns:xlink="http://www.w3.org/1999/xlink">
    <!-- Generator: Sketch 41.1 (35376) - http://www.bohemiancoding.com/sketch -->
    <title>Group</title>
    <desc>Created with Sketch.</desc>
    <defs></defs>
    <g id="Page-1" stroke="none" stroke-width="1" fill="none" fill-rule="evenodd">
        <g id="tarde-outlets-list" transform="translate(-443.000000, -232.000000)" fill="#3AB3DF">
            <g id="табл" transform="translate(56.000000, 224.000000)">
                <g id="Group-3" transform="translate(207.000000, 0.000000)">
                    <g id="delete" transform="translate(180.000000, 8.000000)">
                        <g id="Group">
                            <path d="M24.3083795,22.604427 L28.7123321,18.4614493 C29.2995258,17.9068775 29.2995258,17.026087 28.7123321,16.4715152 L24.3410014,12.2959157 C24.1126483,12.1001845 23.9169171,11.969697 23.7538077,11.969697 C23.4928327,11.969697 23.2971015,12.2306719 23.2971015,12.72 L23.2971015,15.6233465 L18.7727273,15.6233465 L18.7727273,19.2769961 L23.2644796,19.2769961 L23.2644796,22.1803427 C23.2644796,22.6370488 23.4602109,22.8980238 23.7211858,22.8980238 C23.8842952,22.8980238 24.0800264,22.8001582 24.3083795,22.604427 Z" id="Shape"></path>
                            <polygon id="Shape" points="10.283105 22.5200005 10.283105 14.571765 15.4246574 14.571765 15.4246574 22.5200005 21.851598 22.5200005 21.851598 20 17.851598 20 17.851598 15 21.851598 15 21.851598 11.9223532 25.7077624 11.9223532 12.8538812 0 0 11.9223532 3.85616436 11.9223532 3.85616436 22.5200005"></polygon>
                        </g>
                    </g>
                </g>
            </g>
        </g>
    </g>
</svg>