<?xml version="1.0" encoding="utf-8"?>
<!-- Generated by IcoMoon.io -->
<!DOCTYPE svg PUBLIC "-//W3C//DTD SVG 1.1//EN" "http://www.w3.org/Graphics/SVG/1.1/DTD/svg11.dtd">
<svg version="1.1" xmlns="http://www.w3.org/2000/svg" xmlns:xlink="http://www.w3.org/1999/xlink" width="1963" height="1024" viewBox="0 0 1963 1024">
<g id="icomoon-ignore">
</g>
<path fill="#fff" d="M293.015 222.635h-270.881c-12.258 0-22.149 10.682-22.149 23.83s9.909 23.83 22.149 23.83h270.881c12.239 0 22.149-10.682 22.149-23.83s-9.929-23.83-22.149-23.83zM292.956 414.231c0-13.169-9.929-23.83-22.149-23.83h-218.775c-12.258 0-22.149 10.682-22.149 23.83s9.909 23.83 22.149 23.83h218.775c12.22 0 22.149-10.682 22.149-23.83zM293.015 573.958h-270.881c-12.258 0-22.149 10.682-22.149 23.83s9.909 23.83 22.149 23.83h270.881c12.239 0 22.149-10.682 22.149-23.83s-9.929-23.83-22.149-23.83zM1958.681 516.409l-195.006-255.38c-4.058-5.484-10.529-8.655-17.349-8.501h-204.895c-2.329 0.002-4.244-1.836-4.337-4.164v-222.938c0.046-5.66-2.158-11.105-6.127-15.14s-9.379-6.327-15.039-6.373h-1093.002c-5.69 0-11.144 2.272-15.151 6.311s-6.235 9.513-6.189 15.201v837.448c0 11.785 9.554 21.34 21.34 21.34h87.96c10.767 0.062 19.836-8.032 20.992-18.737 9.646-103.654 96.629-182.917 200.73-182.917s191.084 79.263 200.73 182.917c1.156 10.706 10.225 18.799 20.992 18.737h372.835c10.803 0.072 19.927-8.004 21.166-18.737 9.181-103.973 96.266-183.707 200.644-183.707s191.463 79.735 200.644 183.707c1.239 10.732 10.363 18.808 21.166 18.737h170.89c5.66 0 11.087-2.248 15.090-6.25s6.25-9.43 6.25-15.090v-333.453c-0.025-4.689-1.544-9.247-4.337-13.012v0zM1886.855 526.124h-341.953c-2.875 0-5.205-2.33-5.205-5.205v-197.608c0.090-2.836 2.369-5.115 5.205-5.205h187.371c2.67 0.054 5.165 1.333 6.766 3.47l151.98 196.219c1.183 1.578 1.373 3.687 0.492 5.45s-2.684 2.877-4.655 2.877zM1675.368 884.039c0.071 50.975-30.593 96.968-77.674 116.508s-101.3 8.774-137.345-27.271c-36.045-36.045-46.81-90.263-27.271-137.345s65.533-77.744 116.508-77.674c69.332 0.287 125.358 56.623 125.262 125.955l0.52-0.174zM858.912 884.039c0.071 50.975-30.593 96.968-77.674 116.508s-101.3 8.774-137.345-27.271c-36.045-36.045-46.81-90.263-27.271-137.345s65.533-77.744 116.508-77.674c69.399 0.191 125.531 56.556 125.435 125.955l0.347-0.174z"></path>
</svg>
