<?xml version="1.0" encoding="UTF-8" standalone="no"?>
<svg width="30px" height="30px" viewBox="0 0 30 30" version="1.1" xmlns="http://www.w3.org/2000/svg" xmlns:xlink="http://www.w3.org/1999/xlink">
    <!-- Generator: Sketch 41.1 (35376) - http://www.bohemiancoding.com/sketch -->
    <title>info@24</title>
    <desc>Created with Sketch.</desc>
    <defs></defs>
    <g id="Symbols" stroke="none" stroke-width="1" fill="none" fill-rule="evenodd">
        <g id="header" transform="translate(-1167.000000, -23.000000)" fill="#3AB3DF">
            <g transform="translate(0.000000, -1.000000)" id="info">
                <path d="M1180.5,46.5 L1183.5,46.5 L1183.5,37.5 L1180.5,37.5 L1180.5,46.5 L1180.5,46.5 Z M1182,24 C1173.72,24 1167,30.72 1167,39 C1167,47.28 1173.72,54 1182,54 C1190.28,54 1197,47.28 1197,39 C1197,30.72 1190.28,24 1182,24 L1182,24 Z M1182,51 C1175.385,51 1170,45.615 1170,39 C1170,32.385 1175.385,27 1182,27 C1188.615,27 1194,32.385 1194,39 C1194,45.615 1188.615,51 1182,51 L1182,51 Z M1180.5,34.5 L1183.5,34.5 L1183.5,31.5 L1180.5,31.5 L1180.5,34.5 L1180.5,34.5 Z"></path>
            </g>
        </g>
    </g>
</svg>