<?xml version="1.0" encoding="UTF-8" standalone="no"?>
<svg width="17px" height="26px" viewBox="0 0 17 26" version="1.1" xmlns="http://www.w3.org/2000/svg" xmlns:xlink="http://www.w3.org/1999/xlink">
    <!-- Generator: Sketch 41.1 (35376) - http://www.bohemiancoding.com/sketch -->
    <title>Group 6</title>
    <desc>Created with Sketch.</desc>
    <defs></defs>
    <g id="Page-1" stroke="none" stroke-width="1" fill="none" fill-rule="evenodd">
        <g id="tarde-outlets-list" transform="translate(-189.000000, -232.000000)" fill="#3AB3DF">
            <g id="Group-2" transform="translate(92.000000, 226.000000)">
                <g id="map-copy-2" transform="translate(70.000000, 0.000000)">
                    <g id="Group-6" transform="translate(27.787879, 6.000000)">
                        <path d="M8.1402821,0.140349691 C4.04207111,0.140349691 0.729818395,3.45260241 0.729818395,7.55081339 C0.729818395,8.02800234 0.785958272,8.5051913 0.870168086,8.98238025 C0.926307963,9.26307963 0.982447839,9.51570907 1.06665765,9.76833852 C2.38594475,14.2314587 7.71923302,19.7893065 7.94379253,20.0419359 C7.99993241,20.0980758 8.05607228,20.1261457 8.1402821,20.1261457 C8.22449191,20.1261457 8.28063179,20.0980758 8.33677167,20.0419359 C8.56133117,19.8173764 13.8946194,14.2314587 15.2139065,9.76833852 C15.2981164,9.51570907 15.3542562,9.23500969 15.4103961,8.98238025 C15.4946059,8.5051913 15.5507458,8.02800234 15.5507458,7.55081339 C15.5507458,3.45260241 12.2384931,0.140349691 8.1402821,0.140349691 L8.1402821,0.140349691 Z M8.1402821,11.1999054 C6.11924654,11.1999054 4.49119012,9.57184895 4.49119012,7.55081339 C4.49119012,5.52977784 6.11924654,3.90172142 8.1402821,3.90172142 C10.1613177,3.90172142 11.7893741,5.52977784 11.7893741,7.55081339 C11.7893741,9.57184895 10.1613177,11.1999054 8.1402821,11.1999054 L8.1402821,11.1999054 Z" id="Shape"></path>
                        <path d="M14.8489973,20.2945654 C14.8209274,20.2384255 14.8209274,20.2103556 14.7647875,20.1822856 L12.8279618,18.3577396 C12.715682,18.2454599 12.5472624,18.2454599 12.4349827,18.3577396 C12.3227029,18.4700194 12.3227029,18.638439 12.4349827,18.7507188 L14.3156685,20.5191249 L15.4946059,24.2524267 L12.294633,22.5682304 C12.2104231,22.5401604 12.1262133,22.5120905 12.0420035,22.5682304 L8.1402821,24.533126 L4.23856068,22.5963003 C4.15435086,22.5682304 4.07014105,22.5682304 3.98593123,22.5963003 L0.785958272,24.2804966 L1.96489568,20.5471948 L3.84558154,18.7787887 C3.9578613,18.6665089 3.9578613,18.4980893 3.84558154,18.3858096 C3.73330179,18.2735298 3.56488216,18.2735298 3.45260241,18.3858096 L1.51577667,20.2103556 C1.48770673,20.2384255 1.45963679,20.2945654 1.43156685,20.3226353 L0.0280699383,24.7857555 C-2.48724652e-14,24.8980352 0.0280699383,25.010315 0.112279753,25.0945248 C0.16841963,25.1506647 0.224559506,25.1506647 0.280699383,25.1506647 C0.336839259,25.1506647 0.364909197,25.1506647 0.421049074,25.1225948 L4.09821099,23.185769 L7.99993241,25.1225948 C8.08414222,25.1506647 8.16835204,25.1506647 8.25256185,25.1225948 L12.1542833,23.185769 L15.8314452,25.1225948 C15.9437249,25.1787346 16.0560047,25.1506647 16.1402145,25.0945248 C16.2244243,25.010315 16.2524943,24.8980352 16.2244243,24.7857555 L14.8489973,20.2945654 L14.8489973,20.2945654 Z" id="Shape"></path>
                    </g>
                </g>
            </g>
        </g>
    </g>
</svg>