<?xml version="1.0" encoding="UTF-8" standalone="no"?>
<svg width="30px" height="30px" viewBox="0 0 30 30" version="1.1" xmlns="http://www.w3.org/2000/svg" xmlns:xlink="http://www.w3.org/1999/xlink">
    <!-- Generator: Sketch 41.1 (35376) - http://www.bohemiancoding.com/sketch -->
    <title>noun_605471_cc</title>
    <desc>Created with Sketch.</desc>
    <defs></defs>
    <g id="Symbols" stroke="none" stroke-width="1" fill="none" fill-rule="evenodd">
        <g id="icons" transform="translate(0.000000, -92.000000)" fill="#FFFFFF">
            <g transform="translate(0.000000, 11.000000)" id="noun_605471_cc">
                <g transform="translate(0.000000, 81.000000)">
                    <g id="Group">
                        <g id="Shape">
                            <path d="M7.96875,30 C8.16125,26.91625 9.3875,24.7875 10.76125,22.95375 C9.9575,21.68625 9.04,20.54 8.13,19.41375 C5.97625,16.75125 3.75,13.9975 3.75,10 C3.75,9.4725 3.79875,8.95375 3.87,8.44 C3.25375,8.78 2.69,9.2025 2.1975,9.69625 C0.84,11.05375 0,12.92875 0,15 C0,20.625 6.5625,22.5 7.03125,30 L7.96875,30 L7.96875,30 Z"></path>
                            <path d="M26.13,8.44 C26.20125,8.95375 26.25,9.4725 26.25,10 C26.25,13.9975 24.02375,16.75125 21.87,19.41375 C20.95875,20.54 20.04125,21.68625 19.23875,22.95375 C20.61375,24.7875 21.83875,26.915 22.03125,30 L22.96875,30 C23.4375,22.5 30,20.625 30,15 C30,12.92875 29.16,11.05375 27.8025,9.69625 C27.31,9.2025 26.745,8.78 26.13,8.44 L26.13,8.44 Z"></path>
                            <path d="M15.625,30 C16.25,20 25,17.5 25,10 C25,7.23875 23.88,4.73875 22.07,2.92875 C20.26125,1.12 17.76125,0 15,0 C12.23875,0 9.73875,1.12 7.93,2.92875 C6.11875,4.73875 5,7.23875 5,10 C5,17.5 13.75,20 14.375,30 L15.625,30 L15.625,30 Z M11.25,10 C11.25,7.92875 12.93,6.25 15,6.25 C17.07,6.25 18.75,7.92875 18.75,10 C18.75,12.07125 17.07,13.75 15,13.75 C12.93,13.75 11.25,12.07125 11.25,10 L11.25,10 Z"></path>
                        </g>
                    </g>
                </g>
            </g>
        </g>
    </g>
</svg>