<?xml version="1.0" encoding="UTF-8" standalone="no"?>
<svg width="15px" height="15px" viewBox="0 0 15 15" version="1.1" xmlns="http://www.w3.org/2000/svg" xmlns:xlink="http://www.w3.org/1999/xlink">
    <!-- Generator: Sketch 41.1 (35376) - http://www.bohemiancoding.com/sketch -->
    <title>pencil</title>
    <desc>Created with Sketch.</desc>
    <defs></defs>
    <g id="Symbols" stroke="none" stroke-width="1" fill="none" fill-rule="evenodd">
        <g id="pencil" fill="#3AB3DF">
            <g id="Shape">
                <path d="M14.53125,4.546875 C14.859375,4.21875 14.859375,3.703125 14.53125,3.375 L11.625,0.46875 C11.296875,0.140625 10.78125,0.140625 10.453125,0.46875 L9.421875,1.5 L13.5,5.578125 L14.53125,4.546875 L14.53125,4.546875 Z"></path>
                <polygon points="1.59375 9.375 5.625 13.40625 12.984375 6.09375 12.984375 6.09375 8.90625 2.015625"></polygon>
                <path d="M0.28125,13.734375 C0.234375,13.96875 0.28125,14.25 0.421875,14.4375 C0.5625,14.625 0.796875,14.765625 1.078125,14.765625 L1.078125,14.765625 C1.125,14.765625 1.21875,14.765625 1.265625,14.71875 L5.015625,13.78125 L1.21875,9.984375 L0.28125,13.734375 L0.28125,13.734375 Z"></path>
            </g>
        </g>
    </g>
</svg>