<svg xmlns="http://www.w3.org/2000/svg" width="34" height="34" viewBox="0 0 34 34">
    <g fill="#3AB3DF" fill-rule="evenodd" transform="translate(0 2)">
        <circle cx="17" cy="17" r="5.333"/>
        <path d="M12 .333L8.95 3.667H3.667A3.343 3.343 0 0 0 .333 7v20c0 1.833 1.5 3.333 3.334 3.333h26.666c1.834 0 3.334-1.5 3.334-3.333V7c0-1.833-1.5-3.333-3.334-3.333H25.05L22 .333H12zm5 25A8.336 8.336 0 0 1 8.667 17c0-4.6 3.733-8.333 8.333-8.333S25.333 12.4 25.333 17 21.6 25.333 17 25.333z"/>
    </g>
</svg>
