<?xml version="1.0" encoding="UTF-8" standalone="no"?>
<svg width="27px" height="25px" viewBox="0 0 27 25" version="1.1" xmlns="http://www.w3.org/2000/svg" xmlns:xlink="http://www.w3.org/1999/xlink">
    <!-- Generator: Sketch 41.1 (35376) - http://www.bohemiancoding.com/sketch -->
    <title>print</title>
    <desc>Created with Sketch.</desc>
    <defs></defs>
    <g id="Page-1" stroke="none" stroke-width="1" fill="none" fill-rule="evenodd">
        <g id="order-info" transform="translate(-1048.000000, -102.000000)" fill="#3AB3DF">
            <g id="Group-3" transform="translate(1027.000000, 96.000000)">
                <g id="Group-11">
                    <g id="print" transform="translate(21.000000, 6.000000)">
                        <path d="M19.3093373,6.73644578 L19.3093373,5.26204819 L19.3093373,3.08825301 C19.2921687,2.95662651 19.2816265,2.79487952 19.2816265,2.58945783 C19.2816265,0.567771084 17.9457831,0.203915663 17.2521084,0.15060241 L8.89668675,0.15060241 C7.06716867,0.15060241 7.03975904,1.79668675 7.03975904,1.79668675 L7.03975904,5.2623494 L7.03975904,6.73704819 L18.3183735,6.73704819 L19.3093373,6.73644578 L19.3093373,6.73644578 L19.3093373,6.73644578 Z" id="Shape"></path>
                        <path d="M17.9936747,19.0268072 L8.49156627,19.0268072 C7.24879518,19.0268072 7.18072289,20.2286145 7.18072289,20.2286145 L7.18072289,21.513253 L7.18072289,22.8237952 L7.18072289,23.6584337 C7.1873494,23.9114458 7.29006024,24.8725904 8.45993976,24.8725904 L18.0301205,24.8725904 C18.314759,24.8653614 19.413253,24.7548193 19.413253,23.4879518 L19.413253,20.3930723 C19.413253,19.2605422 18.4795181,19.0569277 17.9936747,19.0268072 L17.9936747,19.0268072 Z" id="Shape"></path>
                        <path d="M21.6033133,5.2623494 L21.5012048,5.2623494 C21.2454819,5.28554217 20.5948795,5.50813253 20.5948795,7.17650602 L20.5948795,9.42439759 L20.1834337,9.42439759 L6.16626506,9.42439759 L6,9.42439759 L6,6.73674699 C6,5.57771084 5.53975904,5.3123494 5.24156627,5.26204819 L4.99216867,5.26204819 C2.25150602,5.26204819 0.0213855422,7.49156627 0.0213855422,10.2331325 L0.0213855422,17.8524096 C0.0213855422,20.5939759 2.25150602,22.823494 4.99216867,22.823494 C5.77740964,22.823494 5.95150602,22.2942771 5.98373494,21.9635542 L5.98373494,21.5129518 L5.98373494,18.5524096 C6.02439759,18.2183735 6.23795181,17.6993976 7.18072289,17.6993976 L8.05451807,17.6993976 L18.5403614,17.6993976 L19.496988,17.6993976 C19.7659639,17.7114458 20.610241,17.8614458 20.610241,19.3006024 L20.610241,21.5129518 L20.6099398,21.5129518 L20.6099398,21.6481928 L20.6099398,21.8 C20.6253012,22.1171687 20.7545181,22.823494 21.603012,22.823494 C24.3439759,22.823494 26.573494,20.5936747 26.573494,17.8524096 L26.573494,10.2331325 C26.5737952,7.49186747 24.3439759,5.2623494 21.6033133,5.2623494 L21.6033133,5.2623494 Z M21.0210843,13.1849398 L20.1996988,13.1849398 C19.8376506,13.1849398 19.5439759,12.8912651 19.5439759,12.5292169 C19.5439759,12.1677711 19.8373494,11.8737952 20.1996988,11.8737952 L21.0210843,11.8737952 C21.3825301,11.8737952 21.676506,12.1674699 21.676506,12.5292169 C21.676506,12.8915663 21.3828313,13.1849398 21.0210843,13.1849398 L21.0210843,13.1849398 Z" id="Shape"></path>
                    </g>
                </g>
            </g>
        </g>
    </g>
</svg>