<?xml version="1.0" encoding="UTF-8" standalone="no"?>
<svg width="30px" height="25px" viewBox="0 0 30 25" version="1.1" xmlns="http://www.w3.org/2000/svg" xmlns:xlink="http://www.w3.org/1999/xlink">
    <!-- Generator: Sketch 41.1 (35376) - http://www.bohemiancoding.com/sketch -->
    <title>личн каб copy</title>
    <desc>Created with Sketch.</desc>
    <defs></defs>
    <g id="Symbols" stroke="none" stroke-width="1" fill="none" fill-rule="evenodd">
        <g id="icons" transform="translate(0.000000, -334.000000)" fill="#FFFFFF">
            <g transform="translate(0.000000, 11.000000)" id="wallet">
                <g transform="translate(0.000000, 321.000000)">
                    <g id="Group" transform="translate(-6.000000, 2.000000)">
                        <path d="M27.15975,16.0600714 L35.742,16.0600714 L35.742,9.16082143 L27.15975,9.16082143 L27.15975,16.0600714 L27.15975,16.0600714 Z M31.053,11.2863214 C31.6785,11.2863214 32.1855,11.8795714 32.1855,12.6093214 C32.1855,13.3413214 31.6785,13.9330714 31.053,13.9330714 C30.4275,13.9330714 29.9205,13.3413214 29.9205,12.6093214 C29.92125,11.8795714 30.4275,11.2863214 31.053,11.2863214 L31.053,11.2863214 Z" id="Shape"></path>
                        <path d="M35.742,7.88732143 L35.742,2.77532143 C35.742,1.53407143 34.8675,0.523821429 33.792,0.523821429 L31.87875,0.523821429 L8.19182143,0.418071429 C7.64357143,0.586821429 6.50292859,2.52246424 6.17142859,3.08571424 C5.99367859,3.44646424 6.17142857,13.371429 6.17142857,13.371429 C6.17142857,13.371429 6.17142859,20.8579934 6.17142859,21.6000004 C6.17142859,22.6285719 6.17142859,23.6571433 8.22857139,24.6857147 C10.2857142,24.6857147 33.79125,24.5440714 33.79125,24.5440714 C34.86675,24.5440714 35.74125,23.5330714 35.74125,22.2925714 L35.74125,17.3335714 L26.523,17.3335714 C26.17125,17.3335714 25.88625,17.0485714 25.88625,16.6968214 L25.88625,8.52407143 C25.887,8.17157143 26.172,7.88732143 26.523,7.88732143 L35.742,7.88732143 Z" id="Shape"></path>
                    </g>
                </g>
            </g>
        </g>
    </g>
</svg>