<?xml version="1.0" encoding="UTF-8" standalone="no"?>
<svg width="20px" height="20px" viewBox="0 0 20 20" version="1.1" xmlns="http://www.w3.org/2000/svg" xmlns:xlink="http://www.w3.org/1999/xlink">
    <!-- Generator: Sketch 41.1 (35376) - http://www.bohemiancoding.com/sketch -->
    <title>Group</title>
    <desc>Created with Sketch.</desc>
    <defs></defs>
    <g id="Symbols" stroke="none" stroke-width="1" fill="none" fill-rule="evenodd">
        <g id="header" transform="translate(-409.000000, -27.000000)" fill="#3AB3DF">
            <g transform="translate(0.000000, -1.000000)" id="ic_search_black_48px">
                <g transform="translate(409.000000, 28.000000)">
                    <g id="Group">
                        <path d="M13.8888889,12.2222222 L13.0111111,12.2222222 L12.7,11.9222222 C13.7888889,10.6555556 14.4444444,9.01111111 14.4444444,7.22222222 C14.4444444,3.23333333 11.2111111,0 7.22222222,0 C3.23333333,0 0,3.23333333 0,7.22222222 C0,11.2111111 3.23333333,14.4444444 7.22222222,14.4444444 C9.01111111,14.4444444 10.6555556,13.7888889 11.9222222,12.7 L12.2222222,13.0111111 L12.2222222,13.8888889 L17.7777778,19.4333333 L19.4333333,17.7777778 L13.8888889,12.2222222 L13.8888889,12.2222222 Z M7.22222222,12.2222222 C4.45555556,12.2222222 2.22222222,9.98888889 2.22222222,7.22222222 C2.22222222,4.45555556 4.45555556,2.22222222 7.22222222,2.22222222 C9.98888889,2.22222222 12.2222222,4.45555556 12.2222222,7.22222222 C12.2222222,9.98888889 9.98888889,12.2222222 7.22222222,12.2222222 L7.22222222,12.2222222 Z" id="Shape"></path>
                    </g>
                </g>
            </g>
        </g>
    </g>
</svg>