<?xml version="1.0" encoding="UTF-8" standalone="no"?>
<svg width="30px" height="25px" viewBox="0 0 30 25" version="1.1" xmlns="http://www.w3.org/2000/svg" xmlns:xlink="http://www.w3.org/1999/xlink">
    <!-- Generator: Sketch 41.1 (35376) - http://www.bohemiancoding.com/sketch -->
    <title>transf_pers</title>
    <desc>Created with Sketch.</desc>
    <defs></defs>
    <g id="Symbols" stroke="none" stroke-width="1" fill="none" fill-rule="evenodd">
        <g id="transf_pers" fill="#3AB3DF">
            <g>
                <path d="M20.6439394,23.7878788 L20.6439394,22.1212121 L14.7727273,22.1212121 L13.1060606,22.1212121 L13.1060606,20.4545455 L13.1060606,16.25 L13.1060606,15.5681818 C12.4621212,15.4545455 11.8181818,15.4166667 11.1363636,15.4166667 C4.96212121,15.4166667 0,19.5454545 0,24.6212121 L20.7575758,24.6212121 C20.6818182,24.3939394 20.6439394,24.0909091 20.6439394,23.7878788 L20.6439394,23.7878788 Z" id="Shape"></path>
                <ellipse id="Oval" cx="11.4393939" cy="7.04545455" rx="6.70454545" ry="6.70454545"></ellipse>
                <path d="M22.8409091,24.6590909 C23.030303,24.6590909 23.2575758,24.5454545 23.5227273,24.3181818 L28.6363636,19.5075758 C29.3181818,18.8636364 29.3181818,17.8409091 28.6363636,17.1969697 L23.5606061,12.3484848 C23.2954545,12.1212121 23.0681818,11.969697 22.8787879,11.969697 C22.5757576,11.969697 22.3484848,12.2727273 22.3484848,12.8409091 L22.3484848,16.2121212 L14.7727273,16.2121212 L14.7727273,20.4545455 L22.3106061,20.4545455 L22.3106061,23.8257576 C22.3106061,24.3560606 22.5378788,24.6590909 22.8409091,24.6590909 L22.8409091,24.6590909 Z" id="Shape"></path>
            </g>
        </g>
    </g>
</svg>